<?xml version="1.0" standalone="no"?>
<!DOCTYPE svg PUBLIC "-//W3C//DTD SVG 20010904//EN"
 "http://www.w3.org/TR/2001/REC-SVG-20010904/DTD/svg10.dtd">
<svg version="1.0" xmlns="http://www.w3.org/2000/svg"
 width="700.000000pt" height="700.000000pt" viewBox="0 0 700.000000 700.000000"
 preserveAspectRatio="xMidYMid meet">
<metadata>
Created by potrace 1.11, written by Peter Selinger 2001-2013
</metadata>
<g transform="translate(0.000000,700.000000) scale(0.100000,-0.100000)"
fill="#000000" stroke="none">
<path d="M180 6601 c-116 -24 -192 -127 -176 -235 9 -57 56 -122 111 -150 38
-20 57 -21 416 -24 l375 -3 83 -299 c45 -165 248 -996 450 -1848 l368 -1547
-276 -6 c-298 -7 -324 -10 -448 -68 -193 -91 -328 -249 -395 -461 -20 -64 -23
-96 -23 -215 1 -131 3 -146 32 -228 40 -113 83 -184 162 -269 107 -115 255
-197 398 -221 l63 -11 16 -51 c89 -270 327 -488 601 -549 104 -23 279 -21 379
4 261 66 491 273 574 519 l25 71 839 -2 839 -3 17 -50 c91 -268 322 -475 600
-540 96 -22 278 -20 376 5 428 108 694 533 605 966 -63 304 -298 549 -606 630
-105 28 -304 26 -410 -5 -85 -24 -191 -74 -264 -124 -119 -81 -237 -236 -293
-383 l-31 -84 -834 2 -834 3 -33 82 c-45 111 -89 182 -165 265 -110 119 -249
203 -406 244 -105 28 -304 26 -410 -5 -252 -71 -461 -259 -551 -493 -15 -40
-30 -76 -34 -81 -11 -13 -128 53 -165 95 -60 66 -80 120 -80 218 0 71 4 94 26
141 33 71 87 125 158 158 l56 26 345 -2 c190 -2 1265 -5 2390 -8 2291 -6 2097
-12 2165 68 20 23 42 64 50 92 8 27 177 803 375 1724 295 1365 361 1682 355
1718 -7 46 -50 112 -98 147 l-28 21 -2717 5 -2716 5 -82 305 c-46 168 -85 315
-89 327 -8 33 -53 82 -99 106 -40 22 -48 22 -496 24 -250 1 -471 -2 -490 -6z
m6330 -1185 c0 -7 -22 -121 -49 -252 -60 -288 -549 -2621 -555 -2649 -5 -20
-12 -20 -1832 -17 -1005 1 -1829 4 -1831 6 -6 5 -693 2898 -693 2917 0 5 983
9 2480 9 2088 0 2480 -2 2480 -14z m-4242 -3858 c121 -45 209 -157 233 -296
29 -164 -67 -340 -226 -418 -54 -26 -69 -29 -160 -29 -86 0 -108 4 -155 26
-82 39 -154 109 -192 187 -30 62 -33 75 -33 167 0 88 3 107 27 157 31 67 105
149 164 184 93 54 231 63 342 22z m3182 22 c167 -32 288 -152 320 -317 32
-161 -65 -340 -225 -419 -54 -26 -69 -29 -160 -29 -86 0 -108 4 -155 26 -82
39 -154 109 -192 187 -30 62 -33 75 -33 167 0 88 3 107 27 157 31 67 105 149
164 184 37 22 139 51 185 53 9 1 40 -4 69 -9z"/>
<path d="M3005 4861 c-43 -19 -100 -78 -116 -118 -5 -14 -9 -296 -9 -676 0
-730 -3 -697 73 -764 99 -87 265 -55 318 61 18 39 19 78 19 696 0 616 -2 657
-19 695 -49 105 -166 152 -266 106z"/>
<path d="M3965 4869 c-49 -18 -94 -57 -118 -102 l-22 -42 0 -661 0 -661 30
-49 c42 -68 117 -108 192 -101 72 7 129 42 161 97 l27 45 0 665 0 665 -25 45
c-48 85 -159 130 -245 99z"/>
<path d="M4906 4865 c-49 -17 -93 -59 -117 -110 -17 -38 -19 -78 -19 -690 0
-728 -3 -695 73 -762 102 -89 257 -60 318 58 19 38 19 59 17 712 l-3 674 -29
41 c-33 48 -112 92 -165 92 -20 -1 -53 -7 -75 -15z"/>
</g>
</svg>
